<?xml version="1.0" encoding="utf-8"?>
<!-- Generator: Adobe Illustrator 27.5.0, SVG Export Plug-In . SVG Version: 6.00 Build 0)  -->
<svg version="1.1" id="Layer_1" xmlns="http://www.w3.org/2000/svg" xmlns:xlink="http://www.w3.org/1999/xlink" x="0px" y="0px"
	 viewBox="0 0 415.917 165.084" style="enable-background:new 0 0 415.917 165.084;" xml:space="preserve">
<g>
	<g>
		<path style="fill:#ED2124;" d="M405.342,84.168V61.9c0,0-0.292-4.429-8.542-6.172c-8.25-1.742-51.318-12.453-51.318-12.453
			s-43.656-32.699-58.439-36.538c-14.781-3.839-41.766-4.586-49.817-4.151c0,0-48.827-0.132-65.857,6.465
			c-17.028,6.596-47.326,39.222-58.816,43.045c-11.492,3.823-79.153,18.396-88.884,24.771c0,0-7.569,3.351-9.452,9.15
			c-1.885,5.798-3.231,16.751-3.231,16.751s-3.899,2.785-4.672,4.679c-0.775,1.895,4.672,23.098,4.672,23.098
			s0.756,3.169,2.897,3.163c0.388-0.002,12.239-0.002,31.345-0.002c0.358-4.487,1.751-16.821,6.652-25.903
			c6.093-11.296,21.782-11.766,29.761-11.551c22.509,0.603,25.559,8.05,29.087,15.724c2.414,5.252,3.563,15.676,4.05,21.728
			c56.851,0.001,126.413,0.002,177.186,0.002c0.357-4.486,1.752-16.82,6.651-25.903c6.093-11.296,21.781-11.766,29.763-11.551
			c22.508,0.603,25.558,8.05,29.085,15.724c2.414,5.254,3.565,15.68,4.051,21.732c0.064,0,0.101,0,0.101,0l42.85-17.33
			c0,0,1.742-1.277,2.746-4.175c1-2.896,2.469-16.797,2.469-16.797L405.342,84.168z"/>
		<g>
			<linearGradient id="SVGID_1_" gradientUnits="userSpaceOnUse" x1="363.4365" y1="95.7232" x2="409.6787" y2="95.7232">
				<stop  offset="0" style="stop-color:#FFFFFF"/>
				<stop  offset="0.0795" style="stop-color:#DCDBDC"/>
				<stop  offset="0.2044" style="stop-color:#ABAAAA"/>
				<stop  offset="0.3325" style="stop-color:#827F80"/>
				<stop  offset="0.4614" style="stop-color:#5F5C5D"/>
				<stop  offset="0.5916" style="stop-color:#454142"/>
				<stop  offset="0.7234" style="stop-color:#322E2F"/>
				<stop  offset="0.8579" style="stop-color:#272324"/>
				<stop  offset="0.9993" style="stop-color:#231F20"/>
			</linearGradient>
			<polygon style="opacity:0.4;fill:url(#SVGID_1_);" points="363.436,107.278 409.679,95.405 405.342,84.168 			"/>
			<g>
				<path style="fill:#231F20;" d="M81.641,96.251c-7.98-0.215-23.668,0.255-29.761,11.551c-4.901,9.082-6.293,21.416-6.652,25.903
					c17.941-0.001,42.282-0.002,69.55-0.002c-0.487-6.053-1.637-16.476-4.05-21.728C107.2,104.301,104.149,96.854,81.641,96.251z"/>
				<path style="fill:#231F20;" d="M328.378,96.251c-7.981-0.215-23.67,0.255-29.763,11.551c-4.899,9.083-6.294,21.417-6.651,25.903
					c39.558,0.001,67.705,0.002,69.55,0.002c-0.485-6.053-1.637-16.479-4.051-21.732C353.935,104.301,350.886,96.854,328.378,96.251
					z"/>
			</g>
			<g>
				<path style="fill:#ED2124;" d="M405.342,84.168V61.9c0,0-0.292-4.429-8.542-6.172c-8.25-1.742-51.318-12.453-51.318-12.453
					s47.699,13.38,51.174,13.741c3.475,0.363,4.432,3.027,4.432,3.027s-21.982,0.261-25.108,1.65
					c-3.128,1.391-1.827,3.041-1.827,3.041s4.172,6.256,5.997,8.515c1.824,2.259,4.778,2.606,4.778,2.606l16.247,4.258l0.085,6.343
					l4.083,9.76l-41.44,10.918l42.398-9.036c0,0-0.607,8.861-0.958,12.077c-0.351,3.215-4.43,5.188-4.43,5.188l-38.054,15.713
					c0,0-0.522-10.388-4.172-21.075c-3.648-10.685-14.423-13.292-22.414-14.277c-7.994-0.985-21.374-1.621-31.974,4.026
					c-10.601,5.647-13.032,27.963-13.032,27.963c-1.3-0.591-1.479-2.372-1.479-2.372c0.695-14.026,8.95-26.024,8.95-26.024
					c-10.079,7.384-12.858,31.45-12.858,31.45H122.629c-3.732,0.174-6.517,1.577-6.517,1.577s0.347-13.393-6.169-25.644
					c-6.517-12.25-29.02-12.077-33.018-12.065c-3.996,0.011-14.681,0.423-22.936,8.048c-8.254,7.623-10.34,28.693-10.34,28.693
					s-14.942,0.173-16.876,0c-1.932-0.172-0.585-1.392-0.585-1.392s1.999-4.083,3.041-7.195c1.042-3.11-0.398-3.603-0.398-3.603
					s-9.768-9.794-11.115-11.415c-1.349-1.624-4.653-0.549-4.653-0.549s-5.642,1.997-5.949,1.461c-0.307-0.535,0.307,0.536,0-0.912
					c-0.307-1.449,4.477-4.591,4.477-4.591l15.831-1.756l-14.952,0.534v-4.208c0,0,10.416-2.171,13.052-2.656
					c2.637-0.483,9.355-6.641,11.354-8.878c1.997-2.235,2.91-4.67,2.91-4.67c-0.044-3.521-4.562-2.91-4.562-2.91l-17.019,2.91
					c0.372-0.804,4.206-3.67,6.172-5.102c-0.261,0.144-0.5,0.285-0.708,0.421c0,0-7.569,3.351-9.452,9.15
					c-1.885,5.798-3.231,16.751-3.231,16.751s-3.899,2.785-4.672,4.679c-0.775,1.895,4.672,23.098,4.672,23.098
					s0.756,3.169,2.897,3.163c0.388-0.002,12.239-0.002,31.345-0.002c0.358-4.487,1.751-16.821,6.652-25.903
					c6.093-11.296,21.782-11.766,29.761-11.551c22.509,0.603,25.559,8.05,29.087,15.724c2.414,5.252,3.563,15.676,4.05,21.728
					c56.851,0.001,126.413,0.002,177.186,0.002c0.357-4.486,1.752-16.82,6.651-25.903c6.093-11.296,21.781-11.766,29.763-11.551
					c22.508,0.603,25.558,8.05,29.085,15.724c2.414,5.254,3.565,15.68,4.051,21.732c0.064,0,0.101,0,0.101,0l42.85-17.33
					c0,0,1.742-1.277,2.746-4.175c1-2.896,2.469-16.797,2.469-16.797L405.342,84.168z"/>
			</g>
			<g>
				<path style="fill:#262628;" d="M81.641,96.251c-7.98-0.215-23.668,0.255-29.761,11.551c-4.901,9.082-6.293,21.416-6.652,25.903
					c17.941-0.001,42.282-0.002,69.55-0.002c-0.487-6.053-1.637-16.476-4.05-21.728C107.2,104.301,104.149,96.854,81.641,96.251z"/>
				<path style="fill:#262628;" d="M328.378,96.251c-7.981-0.215-23.67,0.255-29.763,11.551c-4.899,9.083-6.294,21.417-6.651,25.903
					c39.558,0.001,67.705,0.002,69.55,0.002c-0.485-6.053-1.637-16.479-4.051-21.732C353.935,104.301,350.886,96.854,328.378,96.251
					z"/>
			</g>
			<path style="opacity:0.4;fill:#2F3740;" d="M114.458,53.297c-0.547-0.332-0.979-0.789-1.322-1.295
				c-0.119,0.032-0.237,0.068-0.354,0.104c0.347,0.53,0.784,1.019,1.345,1.392c-0.597,0.882-4.012,5.588-10.276,7.859
				c-2.789,1.012-14.597,2.855-28.272,4.992c-17.136,2.677-37.752,5.896-48.238,8.671c-0.296,0.191-0.587,0.391-0.875,0.597
				c10.096-2.823,31.487-6.163,49.167-8.925c13.693-2.14,25.517-3.986,28.338-5.009c7.006-2.539,10.513-8.09,10.547-8.146
				l0.091-0.149L114.458,53.297z"/>
			<path style="fill:#414142;" d="M7.362,109.932c0,0-0.42,0.483-0.168,1.867c0.252,1.383,4.311,17.267,4.311,17.267
				s0.671,2.269,3.117,2.332h6.439c0,0,3.128-0.162,4.344-2.482c1.216-2.319,2.258-6.309,2.258-6.309s1.131-1.626-1.652-4.597
				c-2.779-2.97-9.469-9.618-9.469-9.618s-0.676-1.085-3.38-0.39C10.461,108.698,7.362,109.932,7.362,109.932z"/>
			<path style="fill:#111112;" d="M9.211,111.38c0,0-0.375,0.431-0.152,1.657c0.224,1.227,3.823,15.316,3.823,15.316
				s0.597,2.014,2.766,2.069h5.712c0,0,2.775-0.145,3.854-2.202c1.08-2.058,2.004-5.596,2.004-5.596s1.002-1.442-1.464-4.078
				c-2.465-2.634-8.4-8.532-8.4-8.532s-0.601-0.961-2.997-0.345C11.958,110.287,9.211,111.38,9.211,111.38z"/>
			<path style="fill:#353536;" d="M11.215,112.627c0,0-0.32,0.367-0.129,1.416c0.189,1.048,3.266,13.087,3.266,13.087
				s0.512,1.72,2.362,1.768h4.882c0,0,2.37-0.124,3.293-1.882c0.92-1.757,1.712-4.781,1.712-4.781s0.857-1.231-1.252-3.483
				c-2.107-2.252-7.177-7.29-7.177-7.29s-0.513-0.821-2.563-0.295C13.565,111.693,11.215,112.627,11.215,112.627z"/>
			<g>
				<path style="fill:#373736;" d="M300.419,15.415c7.182,4.519,37.996,27.455,37.996,27.455s4.055,2.548,7.066,0.405
					c0,0-37.939-28.416-55.057-35.375C290.501,7.981,293.331,10.959,300.419,15.415z"/>
			</g>
			
				<linearGradient id="SVGID_00000106124233008875727890000001620525677432410808_" gradientUnits="userSpaceOnUse" x1="7.1138" y1="103.4512" x2="49.2993" y2="103.4512">
				<stop  offset="0" style="stop-color:#FFFFFF"/>
				<stop  offset="0.0795" style="stop-color:#DCDBDC"/>
				<stop  offset="0.2044" style="stop-color:#ABAAAA"/>
				<stop  offset="0.3325" style="stop-color:#827F80"/>
				<stop  offset="0.4614" style="stop-color:#5F5C5D"/>
				<stop  offset="0.5916" style="stop-color:#454142"/>
				<stop  offset="0.7234" style="stop-color:#322E2F"/>
				<stop  offset="0.8579" style="stop-color:#272324"/>
				<stop  offset="0.9993" style="stop-color:#231F20"/>
			</linearGradient>
			<path style="opacity:0.4;fill:url(#SVGID_00000106124233008875727890000001620525677432410808_);" d="M11.554,102.993
				c0,0-3.323,2.374-4.44,4.229l42.186-7.543L11.554,102.993z"/>
			<path style="fill:#373736;" d="M123.093,49.837c5.551-3.689,35.475-29.883,40.445-36.645
				c-16.657,10.601-39.338,33.801-49.826,38.448v0.001C113.711,51.642,117.233,53.733,123.093,49.837z"/>
			<path style="fill:#ED2124;" d="M81.811,91.594c-8.862-0.237-26.287,0.283-33.052,12.829c-5.644,10.458-7.099,24.797-7.429,29.282
				c1.264,0,2.561,0,3.897,0c0.358-4.487,1.751-16.821,6.652-25.903c6.093-11.296,21.782-11.766,29.761-11.551
				c22.509,0.603,25.559,8.05,29.087,15.724c2.414,5.252,3.563,15.676,4.05,21.728c1.285,0,2.577,0,3.877,0
				c-0.516-6.63-1.791-18.661-4.542-24.647C110.197,100.535,106.808,92.264,81.811,91.594z"/>
			
				<linearGradient id="SVGID_00000062907207195409727640000002823775803981181112_" gradientUnits="userSpaceOnUse" x1="41.3306" y1="112.6307" x2="118.6543" y2="112.6307">
				<stop  offset="0" style="stop-color:#FFFFFF"/>
				<stop  offset="0.0795" style="stop-color:#DCDBDC"/>
				<stop  offset="0.2044" style="stop-color:#ABAAAA"/>
				<stop  offset="0.3325" style="stop-color:#827F80"/>
				<stop  offset="0.4614" style="stop-color:#5F5C5D"/>
				<stop  offset="0.5916" style="stop-color:#454142"/>
				<stop  offset="0.7234" style="stop-color:#322E2F"/>
				<stop  offset="0.8579" style="stop-color:#272324"/>
				<stop  offset="0.9993" style="stop-color:#231F20"/>
			</linearGradient>
			<path style="opacity:0.4;fill:url(#SVGID_00000062907207195409727640000002823775803981181112_);" d="M81.811,91.594
				c-8.862-0.237-26.287,0.283-33.052,12.829c-5.644,10.458-7.099,24.797-7.429,29.282c1.264,0,2.561,0,3.897,0
				c0.358-4.487,1.751-16.821,6.652-25.903c6.093-11.296,21.782-11.766,29.761-11.551c22.509,0.603,25.559,8.05,29.087,15.724
				c2.414,5.252,3.563,15.676,4.05,21.728c1.285,0,2.577,0,3.877,0c-0.516-6.63-1.791-18.661-4.542-24.647
				C110.197,100.535,106.808,92.264,81.811,91.594z"/>
			<path style="fill:#ED2124;" d="M328.468,91.181c-8.943-0.238-26.52,0.288-33.346,12.943c-5.709,10.582-7.17,25.104-7.495,29.581
				c1.458,0,2.906,0,4.337,0c0.357-4.486,1.752-16.82,6.651-25.903c6.093-11.296,21.781-11.766,29.763-11.551
				c22.508,0.603,25.558,8.05,29.085,15.724c2.414,5.254,3.565,15.68,4.051,21.732c0.064,0,0.101,0,0.101,0l3.893-1.575
				c-0.587-6.88-1.879-17.73-4.455-23.334C357.099,100.202,353.684,91.857,328.468,91.181z"/>
			
				<linearGradient id="SVGID_00000155130314430387177250000009412857312619534211_" gradientUnits="userSpaceOnUse" x1="287.627" y1="112.4251" x2="365.5068" y2="112.4251">
				<stop  offset="0" style="stop-color:#FFFFFF"/>
				<stop  offset="0.0795" style="stop-color:#DCDBDC"/>
				<stop  offset="0.2044" style="stop-color:#ABAAAA"/>
				<stop  offset="0.3325" style="stop-color:#827F80"/>
				<stop  offset="0.4614" style="stop-color:#5F5C5D"/>
				<stop  offset="0.5916" style="stop-color:#454142"/>
				<stop  offset="0.7234" style="stop-color:#322E2F"/>
				<stop  offset="0.8579" style="stop-color:#272324"/>
				<stop  offset="0.9993" style="stop-color:#231F20"/>
			</linearGradient>
			<path style="opacity:0.4;fill:url(#SVGID_00000155130314430387177250000009412857312619534211_);" d="M328.468,91.181
				c-8.943-0.238-26.52,0.288-33.346,12.943c-5.709,10.582-7.17,25.104-7.495,29.581c1.458,0,2.906,0,4.337,0
				c0.357-4.486,1.752-16.82,6.651-25.903c6.093-11.296,21.781-11.766,29.763-11.551c22.508,0.603,25.558,8.05,29.085,15.724
				c2.414,5.254,3.565,15.68,4.051,21.732c0.064,0,0.101,0,0.101,0l3.893-1.575c-0.587-6.88-1.879-17.73-4.455-23.334
				C357.099,100.202,353.684,91.857,328.468,91.181z"/>
			<g>
				<path style="fill:#4A4B4C;" d="M17.702,82.63c0,0-1.4,0.104-2.021,1.453c-0.622,1.35-3.212,10.946-3.212,12.191
					c0,1.243,13.106-2.286,14.503-2.933c5.742-2.659,11.583-10.445,11.583-10.619c0-0.174,1.752-3.182-2.823-3.317
					C31.157,79.271,17.702,82.63,17.702,82.63z"/>
				<path style="fill:#111112;" d="M21.406,82.879c0,0-1.072,0.079-1.548,1.111c-0.475,1.033-2.457,8.377-2.457,9.329
					c0,0.953,10.03-1.748,11.098-2.243c4.396-2.035,8.865-7.993,8.865-8.126c0-0.134,1.341-2.436-2.16-2.54
					C31.701,80.308,21.406,82.879,21.406,82.879z"/>
				<path style="opacity:0.2;fill:#F6F6F6;" d="M32.739,80.408c0,0-15.251,2.336-16.159,3.569c-0.909,1.232-3.05,10.448-3.05,10.448
					s9.149-4.283,13.302-8.112c4.155-3.828,6.167-5.905,6.167-5.905H32.739z"/>
				<path style="opacity:0.8;fill:#F6F6F6;" d="M20.885,84.145c2.298-1.214,4.807-2.193,7.302-2.91
					c0.214-0.063,0.43-0.125,0.644-0.188c-4.585,0.781-11.642,2.104-12.25,2.932c-0.732,0.991-2.256,7.133-2.827,9.509
					C15.431,89.766,17.041,86.172,20.885,84.145z"/>
			</g>
			<g>
				<path style="fill:#B51B1C;" d="M379.191,63.375c0,0-2.317,0.578-2.201,1.853c0.115,1.275,5.907,7.066,5.907,7.066
					s0.695,0.587,2.896,1.51c2.203,0.923,16.682,5.093,16.682,5.093s1.609,0.334,2.866,0.127V61.9c0,0-0.015-0.211-0.123-0.561l0,0
					C405.219,61.34,388.46,61.521,379.191,63.375z"/>
				<path style="fill:#880C09;" d="M379.191,63.375c0,0-2.317,0.578-2.201,1.853c0.115,1.275,5.907,7.066,5.907,7.066
					s0.695,0.587,2.896,1.51c2.203,0.923,16.682,5.093,16.682,5.093s1.609,0.334,2.866,0.127V61.9c0,0-0.015-0.211-0.123-0.561l0,0
					C405.219,61.34,388.46,61.521,379.191,63.375z"/>
				<path style="fill:#B51B1C;" d="M380.266,64.268c0,0-2.167,0.47-2.06,1.502c0.11,1.032,5.528,5.727,5.528,5.727
					s0.651,0.475,2.712,1.223c2.059,0.748,15.608,4.127,15.608,4.127s1.507,0.269,2.681,0.102V63.073c0,0-0.014-0.17-0.113-0.453
					l0,0C404.622,62.62,388.939,62.766,380.266,64.268z"/>
				<path style="fill:#B51B1C;" d="M380.466,67.429c0,0-2.722-2.026,0-2.549c2.723-0.521,21.955-1.737,23.691-1.563v9.558
					c0,0-0.522-4.865-4.056-5.562C396.568,66.618,380.466,67.429,380.466,67.429z"/>
				<path style="opacity:0.4;fill:#B75526;" d="M386.558,72.004c-2.367-0.462-4.41-3.243-4.41-3.243s2.143,1.506,5.213,2.143
					c3.067,0.639,16.797,2.724,16.797,2.724v2.851L386.558,72.004z"/>
			</g>
			<g>
				<path style="fill:#B6B7B9;" d="M291.964,135.111c0,1.528-6.066,2.769-7.543,2.769H122.76c-1.478,0-7.83-1.24-7.83-2.769l0,0
					c0-1.529,6.352-2.768,7.83-2.768h161.661C285.897,132.344,291.964,133.582,291.964,135.111L291.964,135.111z"/>
				<path style="opacity:0.5;fill:#B6B7B9;" d="M114.935,135.061c-0.002,0.017-0.005,0.033-0.005,0.05
					c0,1.528,6.352,2.769,7.83,2.769h161.661c1.477,0,7.543-1.24,7.543-2.769c0-0.017-0.006-0.033-0.006-0.05H114.935z"/>
			</g>
			<g>
				<path d="M15.957,111.087l4.253,17.811h1.387c0,0,0.135-0.008,0.349-0.041l-4.23-17.719
					C17.38,111.003,16.831,110.911,15.957,111.087z"/>
				<path d="M11.215,112.627c0,0-0.32,0.367-0.129,1.416c0.189,1.048,3.266,13.087,3.266,13.087s0.301,0.998,1.264,1.494
					l-3.871-16.2C11.416,112.547,11.215,112.627,11.215,112.627z"/>
				<path d="M19.549,112.835l3.732,15.624c0.449-0.206,0.909-0.506,1.271-0.946l-3.033-12.699
					C20.8,114.088,20.114,113.398,19.549,112.835z"/>
				<path d="M13.063,111.948l4.047,16.949h1.673l-4.168-17.451C14.072,111.609,13.54,111.784,13.063,111.948z"/>
				<path d="M26.603,122.234c0,0,0.857-1.231-1.252-3.483c-0.512-0.547-1.2-1.258-1.946-2.021l2.116,8.857
					C26.144,123.979,26.603,122.234,26.603,122.234z"/>
				<path style="fill:#313132;" d="M11.746,112.424l3.871,16.2c0.299,0.155,0.661,0.262,1.099,0.274h0.395l-4.047-16.949
					C12.534,112.131,12.073,112.299,11.746,112.424z"/>
				<path style="fill:#313132;" d="M15.61,111.166c-0.328,0.085-0.663,0.181-0.996,0.28l4.168,17.451h1.428l-4.253-17.811
					C15.847,111.109,15.732,111.134,15.61,111.166z"/>
				<path style="fill:#313132;" d="M18.174,111.461c0,0-0.119-0.184-0.458-0.323l4.23,17.719c0.32-0.05,0.818-0.162,1.336-0.397
					l-3.732-15.624C18.731,112.015,18.174,111.461,18.174,111.461z"/>
				<path style="fill:#313132;" d="M25.521,125.587l-2.116-8.857c-0.608-0.624-1.258-1.283-1.885-1.916l3.033,12.699
					c0.123-0.149,0.241-0.313,0.337-0.497C25.112,126.594,25.324,126.097,25.521,125.587z"/>
			</g>
			
				<linearGradient id="SVGID_00000108990561393580388430000015981584505595900856_" gradientUnits="userSpaceOnUse" x1="80.5618" y1="38.0976" x2="80.5618" y2="144.4381">
				<stop  offset="0" style="stop-color:#FFFFFF"/>
				<stop  offset="0.0795" style="stop-color:#DCDBDC"/>
				<stop  offset="0.2044" style="stop-color:#ABAAAA"/>
				<stop  offset="0.3325" style="stop-color:#827F80"/>
				<stop  offset="0.4614" style="stop-color:#5F5C5D"/>
				<stop  offset="0.5916" style="stop-color:#454142"/>
				<stop  offset="0.7234" style="stop-color:#322E2F"/>
				<stop  offset="0.8579" style="stop-color:#272324"/>
				<stop  offset="0.9993" style="stop-color:#231F20"/>
			</linearGradient>
			<path style="opacity:0.4;fill:url(#SVGID_00000108990561393580388430000015981584505595900856_);" d="M121.439,63.057
				l1.19,12.882l-84.134,8.229c0,0,1.16-4.766,8.108-8.551C53.556,71.831,121.439,63.057,121.439,63.057z"/>
			<path style="opacity:0.4;fill:#FFFFFF;" d="M110.318,53.645L45.228,70.018c0,0,44.381-9.536,51.073-11.107
				C105.163,56.829,110.318,53.645,110.318,53.645z"/>
			
				<linearGradient id="SVGID_00000037654757287379830240000012651170564896439703_" gradientUnits="userSpaceOnUse" x1="357.9985" y1="38.0934" x2="357.9985" y2="144.4506">
				<stop  offset="0" style="stop-color:#FFFFFF"/>
				<stop  offset="0.0795" style="stop-color:#DCDBDC"/>
				<stop  offset="0.2044" style="stop-color:#ABAAAA"/>
				<stop  offset="0.3325" style="stop-color:#827F80"/>
				<stop  offset="0.4614" style="stop-color:#5F5C5D"/>
				<stop  offset="0.5916" style="stop-color:#454142"/>
				<stop  offset="0.7234" style="stop-color:#322E2F"/>
				<stop  offset="0.8579" style="stop-color:#272324"/>
				<stop  offset="0.9993" style="stop-color:#231F20"/>
			</linearGradient>
			<polygon style="opacity:0.4;fill:url(#SVGID_00000037654757287379830240000012651170564896439703_);" points="323.708,58.458 
				318.385,64.855 397.612,58.91 			"/>
			<g>
				<path style="fill:#363635;" d="M112.088,131.419c0,17.226-13.963,31.189-31.184,31.189c-17.225,0-31.186-13.963-31.186-31.189
					c0-17.222,13.961-31.187,31.186-31.187C98.125,100.232,112.088,114.197,112.088,131.419z"/>
				<path style="fill:#4F4E4D;" d="M112.089,131.396c0,17.227-13.962,31.189-31.186,31.189c-17.223,0-31.184-13.963-31.184-31.189
					c0-17.221,13.961-31.187,31.184-31.187C98.127,100.21,112.089,114.176,112.089,131.396z"/>
				<path style="fill:#2D2D2C;" d="M110.318,131.375c0,16.248-13.171,29.419-29.415,29.419c-16.246,0-29.414-13.171-29.414-29.419
					c0-16.243,13.169-29.416,29.414-29.416C97.147,101.959,110.318,115.132,110.318,131.375z"/>
				<g>
					<path style="fill:#909295;" d="M106.103,131.396c0,13.919-11.28,25.198-25.201,25.198c-13.912,0-25.197-11.279-25.197-25.198
						c0-13.915,11.286-25.196,25.197-25.196C94.823,106.2,106.103,117.481,106.103,131.396z"/>
					
						<linearGradient id="SVGID_00000151536084393720852430000015648873261046964131_" gradientUnits="userSpaceOnUse" x1="57.9004" y1="131.3979" x2="103.9092" y2="131.3979">
						<stop  offset="0" style="stop-color:#FFFFFF"/>
						<stop  offset="1" style="stop-color:#848689"/>
					</linearGradient>
					<path style="fill:url(#SVGID_00000151536084393720852430000015648873261046964131_);" d="M103.909,131.396
						c0,12.71-10.301,23.007-23.007,23.007c-12.705,0-23.001-10.297-23.001-23.007c0-12.706,10.297-23.004,23.001-23.004
						C93.608,108.393,103.909,118.69,103.909,131.396z"/>
					<g>
						<path style="fill:#151513;" d="M92.44,117.693c0.038-0.271,0.013-0.537-0.097-0.799c-2.448-2.202-5.608-3.625-9.094-3.896
							c-0.326,0.074-0.623,0.211-0.879,0.417c-0.123,0.173-0.222,0.356-0.31,0.555v12.794c0.07,0.173,0.151,0.331,0.255,0.49
							c0.068,0.036,0.144,0.074,0.218,0.108c0.212-0.021,0.415-0.06,0.612-0.128l9.179-9.184
							C92.37,117.934,92.409,117.815,92.44,117.693z"/>
						<path style="fill:#151513;" d="M99.167,130.327c0.218-0.166,0.388-0.373,0.493-0.633c-0.169-3.289-1.395-6.529-3.672-9.184
							c-0.284-0.179-0.595-0.293-0.92-0.331c-0.205,0.039-0.404,0.101-0.607,0.181l-9.046,9.046
							c-0.072,0.167-0.129,0.34-0.167,0.519c0.022,0.079,0.049,0.162,0.078,0.24c0.159,0.133,0.337,0.249,0.521,0.337H98.83
							C98.949,130.454,99.059,130.398,99.167,130.327z"/>
						<path style="fill:#151513;" d="M94.775,143.614c0.273,0.037,0.54,0.02,0.803-0.088c2.245-2.407,3.721-5.539,4.053-9.021
							c-0.066-0.328-0.199-0.628-0.404-0.89c-0.168-0.12-0.353-0.227-0.551-0.318l-12.79-0.221c-0.17,0.065-0.333,0.146-0.493,0.244
							c-0.038,0.073-0.08,0.148-0.108,0.223c0.01,0.207,0.049,0.415,0.114,0.609l9.018,9.34
							C94.537,143.541,94.654,143.584,94.775,143.614z"/>
						<path style="fill:#151513;" d="M82.37,149.311c0.167,0.216,0.375,0.387,0.637,0.485c3.285-0.218,6.509-1.494,9.127-3.805
							c0.178-0.284,0.29-0.596,0.318-0.928c-0.042-0.198-0.099-0.402-0.184-0.603l-9.177-8.92c-0.169-0.065-0.345-0.12-0.521-0.155
							c-0.081,0.025-0.157,0.054-0.239,0.084c-0.129,0.159-0.239,0.335-0.33,0.526l0.18,12.982
							C82.241,149.094,82.3,149.205,82.37,149.311z"/>
						<path style="fill:#151513;" d="M69.37,117.693c-0.038-0.271-0.011-0.537,0.095-0.799c2.452-2.202,5.612-3.625,9.1-3.896
							c0.322,0.074,0.623,0.211,0.881,0.417c0.116,0.173,0.214,0.356,0.303,0.555v12.794c-0.064,0.173-0.15,0.331-0.252,0.49
							c-0.072,0.036-0.15,0.074-0.226,0.108c-0.205-0.021-0.407-0.06-0.612-0.128l-9.173-9.184
							C69.438,117.934,69.397,117.815,69.37,117.693z"/>
						<path style="fill:#151513;" d="M62.644,130.327c-0.218-0.166-0.392-0.373-0.498-0.633c0.174-3.289,1.4-6.529,3.681-9.184
							c0.276-0.179,0.582-0.293,0.909-0.331c0.212,0.039,0.409,0.101,0.618,0.181l9.042,9.046c0.072,0.167,0.123,0.34,0.165,0.519
							c-0.021,0.079-0.049,0.162-0.08,0.24c-0.159,0.133-0.337,0.249-0.521,0.337H62.978
							C62.862,130.454,62.747,130.398,62.644,130.327z"/>
						<path style="fill:#151513;" d="M67.032,143.614c-0.271,0.037-0.539,0.02-0.803-0.088c-2.243-2.407-3.721-5.539-4.046-9.021
							c0.063-0.328,0.197-0.628,0.399-0.89c0.167-0.12,0.354-0.227,0.553-0.318l12.784-0.221c0.174,0.065,0.336,0.146,0.499,0.244
							c0.038,0.073,0.07,0.148,0.11,0.223c-0.015,0.207-0.055,0.415-0.118,0.609l-9.024,9.34
							C67.273,143.541,67.153,143.584,67.032,143.614z"/>
						<path style="fill:#151513;" d="M79.445,149.311c-0.174,0.216-0.379,0.387-0.64,0.485c-3.289-0.218-6.517-1.494-9.134-3.805
							c-0.178-0.284-0.284-0.596-0.318-0.928c0.044-0.198,0.103-0.402,0.188-0.603l9.177-8.92c0.165-0.065,0.343-0.12,0.519-0.155
							c0.082,0.025,0.157,0.054,0.239,0.084c0.135,0.159,0.239,0.335,0.33,0.526l-0.184,12.982
							C79.572,149.094,79.513,149.205,79.445,149.311z"/>
						<polygon style="fill:#151513;" points="80.936,131.605 80.936,131.605 80.936,131.605 						"/>
						<polygon style="fill:#151513;" points="80.936,131.605 80.936,131.605 80.936,131.605 						"/>
					</g>
					<path style="fill:#969792;" d="M87.662,131.396c0,3.733-3.024,6.76-6.76,6.76c-3.729,0-6.756-3.026-6.756-6.76
						c0-3.73,3.027-6.755,6.756-6.755C84.638,124.642,87.662,127.666,87.662,131.396z"/>
					<path style="fill:#C2C4C6;" d="M85.286,128.076c0,0.464-0.383,0.84-0.845,0.84c-0.472,0-0.845-0.376-0.845-0.84
						c0-0.467,0.373-0.842,0.845-0.842C84.903,127.234,85.286,127.609,85.286,128.076z"/>
					<path style="fill:#C2C4C6;" d="M81.773,126.874c0,0.465-0.374,0.839-0.837,0.839c-0.462,0-0.837-0.374-0.837-0.839
						c0-0.466,0.375-0.84,0.837-0.84C81.4,126.034,81.773,126.408,81.773,126.874z"/>
					<path style="fill:#C2C4C6;" d="M78.211,128.208c0,0.461-0.377,0.835-0.841,0.835c-0.464,0-0.843-0.374-0.843-0.835
						c0-0.468,0.379-0.846,0.843-0.846C77.835,127.362,78.211,127.74,78.211,128.208z"/>
					<path style="fill:#C2C4C6;" d="M85.286,135.432c0-0.466-0.383-0.845-0.845-0.845c-0.472,0-0.845,0.379-0.845,0.845
						c0,0.462,0.373,0.839,0.845,0.839C84.903,136.27,85.286,135.894,85.286,135.432z"/>
					<path style="fill:#C2C4C6;" d="M86.932,131.918c0-0.465-0.381-0.842-0.849-0.842c-0.461,0-0.836,0.377-0.836,0.842
						c0,0.463,0.375,0.837,0.836,0.837C86.551,132.755,86.932,132.381,86.932,131.918z"/>
					<path style="fill:#C2C4C6;" d="M76.562,131.918c0-0.465-0.375-0.842-0.837-0.842c-0.468,0-0.845,0.377-0.845,0.842
						c0,0.463,0.377,0.837,0.845,0.837C76.187,132.755,76.562,132.381,76.562,131.918z"/>
					<path style="fill:#C2C4C6;" d="M81.773,136.632c0-0.467-0.374-0.839-0.837-0.839c-0.462,0-0.837,0.372-0.837,0.839
						c0,0.465,0.375,0.84,0.837,0.84C81.4,137.472,81.773,137.097,81.773,136.632z"/>
					<path style="fill:#C2C4C6;" d="M78.211,135.3c0-0.462-0.377-0.84-0.841-0.84c-0.464,0-0.843,0.378-0.843,0.84
						c0,0.467,0.379,0.841,0.843,0.841C77.835,136.141,78.211,135.767,78.211,135.3z"/>
				</g>
			</g>
		</g>
		<g>
			<path style="fill:#363635;" d="M358.021,131.419c0,17.226-13.963,31.189-31.185,31.189c-17.224,0-31.188-13.963-31.188-31.189
				c0-17.222,13.964-31.187,31.188-31.187C344.058,100.232,358.021,114.197,358.021,131.419z"/>
			<path style="fill:#4F4E4D;" d="M358.021,131.396c0,17.227-13.963,31.189-31.185,31.189c-17.224,0-31.186-13.963-31.186-31.189
				c0-17.221,13.962-31.187,31.186-31.187C344.058,100.21,358.021,114.176,358.021,131.396z"/>
			<path style="fill:#2D2D2C;" d="M356.251,131.375c0,16.248-13.172,29.419-29.415,29.419c-16.245,0-29.416-13.171-29.416-29.419
				c0-16.243,13.171-29.416,29.416-29.416C343.079,101.959,356.251,115.132,356.251,131.375z"/>
			<g>
				<path style="fill:#909295;" d="M352.035,131.396c0,13.919-11.282,25.198-25.201,25.198c-13.913,0-25.198-11.279-25.198-25.198
					c0-13.915,11.285-25.196,25.198-25.196C340.753,106.2,352.035,117.481,352.035,131.396z"/>
				
					<linearGradient id="SVGID_00000166659692067489692890000003906009613528659852_" gradientUnits="userSpaceOnUse" x1="303.833" y1="131.3979" x2="349.8408" y2="131.3979">
					<stop  offset="0" style="stop-color:#FFFFFF"/>
					<stop  offset="1" style="stop-color:#848689"/>
				</linearGradient>
				<path style="fill:url(#SVGID_00000166659692067489692890000003906009613528659852_);" d="M349.841,131.396
					c0,12.71-10.3,23.007-23.007,23.007c-12.704,0-23.001-10.297-23.001-23.007c0-12.706,10.297-23.004,23.001-23.004
					C339.541,108.393,349.841,118.69,349.841,131.396z"/>
				<g>
					<path style="fill:#151513;" d="M338.37,117.693c0.036-0.271,0.014-0.537-0.097-0.799c-2.446-2.202-5.606-3.625-9.094-3.896
						c-0.325,0.074-0.622,0.211-0.878,0.417c-0.123,0.173-0.223,0.356-0.311,0.555v12.794c0.066,0.173,0.15,0.331,0.256,0.49
						c0.068,0.036,0.143,0.074,0.217,0.108c0.212-0.021,0.416-0.06,0.613-0.128l9.178-9.184
						C338.302,117.934,338.34,117.815,338.37,117.693z"/>
					<path style="fill:#151513;" d="M345.1,130.327c0.216-0.166,0.388-0.373,0.492-0.633c-0.169-3.289-1.396-6.529-3.673-9.184
						c-0.283-0.179-0.594-0.293-0.922-0.331c-0.204,0.039-0.404,0.101-0.603,0.181l-9.047,9.046
						c-0.074,0.167-0.131,0.34-0.168,0.519c0.024,0.079,0.051,0.162,0.077,0.24c0.161,0.133,0.339,0.249,0.522,0.337h12.984
						C344.882,130.454,344.989,130.398,345.1,130.327z"/>
					<path style="fill:#151513;" d="M340.706,143.614c0.273,0.037,0.542,0.02,0.803-0.088c2.246-2.407,3.723-5.539,4.053-9.021
						c-0.064-0.328-0.199-0.628-0.401-0.89c-0.171-0.12-0.354-0.227-0.552-0.318l-12.789-0.221
						c-0.173,0.065-0.332,0.146-0.495,0.244c-0.038,0.073-0.077,0.148-0.108,0.223c0.01,0.207,0.052,0.415,0.116,0.609l9.017,9.34
						C340.468,143.541,340.589,143.584,340.706,143.614z"/>
					<path style="fill:#151513;" d="M328.302,149.311c0.166,0.216,0.374,0.387,0.635,0.485c3.285-0.218,6.512-1.494,9.131-3.805
						c0.176-0.284,0.289-0.596,0.316-0.928c-0.041-0.198-0.1-0.402-0.184-0.603l-9.178-8.92c-0.167-0.065-0.343-0.12-0.521-0.155
						c-0.081,0.025-0.156,0.054-0.238,0.084c-0.129,0.159-0.236,0.335-0.328,0.526l0.178,12.982
						C328.17,149.094,328.23,149.205,328.302,149.311z"/>
					<path style="fill:#151513;" d="M315.3,117.693c-0.035-0.271-0.009-0.537,0.096-0.799c2.453-2.202,5.611-3.625,9.1-3.896
						c0.323,0.074,0.623,0.211,0.881,0.417c0.117,0.173,0.215,0.356,0.303,0.555v12.794c-0.064,0.173-0.15,0.331-0.252,0.49
						c-0.072,0.036-0.15,0.074-0.224,0.108c-0.204-0.021-0.409-0.06-0.614-0.128l-9.173-9.184
						C315.368,117.934,315.329,117.815,315.3,117.693z"/>
					<path style="fill:#151513;" d="M308.577,130.327c-0.221-0.166-0.394-0.373-0.499-0.633c0.175-3.289,1.4-6.529,3.681-9.184
						c0.277-0.179,0.582-0.293,0.91-0.331c0.21,0.039,0.407,0.101,0.615,0.181l9.045,9.046c0.072,0.167,0.121,0.34,0.163,0.519
						c-0.02,0.079-0.048,0.162-0.078,0.24c-0.161,0.133-0.337,0.249-0.52,0.337h-12.985
						C308.792,130.454,308.677,130.398,308.577,130.327z"/>
					<path style="fill:#151513;" d="M312.964,143.614c-0.272,0.037-0.539,0.02-0.803-0.088c-2.245-2.407-3.723-5.539-4.049-9.021
						c0.064-0.328,0.197-0.628,0.404-0.89c0.164-0.12,0.352-0.227,0.549-0.318l12.786-0.221c0.175,0.065,0.333,0.146,0.499,0.244
						c0.035,0.073,0.069,0.148,0.107,0.223c-0.014,0.207-0.053,0.415-0.115,0.609l-9.023,9.34
						C313.203,143.541,313.083,143.584,312.964,143.614z"/>
					<path style="fill:#151513;" d="M325.376,149.311c-0.173,0.216-0.377,0.387-0.639,0.485c-3.291-0.218-6.52-1.494-9.134-3.805
						c-0.181-0.284-0.286-0.596-0.32-0.928c0.046-0.198,0.104-0.402,0.188-0.603l9.177-8.92c0.167-0.065,0.344-0.12,0.521-0.155
						c0.082,0.025,0.157,0.054,0.238,0.084c0.131,0.159,0.237,0.335,0.33,0.526l-0.184,12.982
						C325.503,149.094,325.444,149.205,325.376,149.311z"/>
					<polygon style="fill:#151513;" points="326.866,131.605 326.866,131.605 326.866,131.605 					"/>
					<polygon style="fill:#151513;" points="326.866,131.605 326.866,131.605 326.866,131.605 					"/>
				</g>
				<path style="fill:#969792;" d="M333.592,131.396c0,3.733-3.022,6.76-6.758,6.76c-3.728,0-6.757-3.026-6.757-6.76
					c0-3.73,3.029-6.755,6.757-6.755C330.57,124.642,333.592,127.666,333.592,131.396z"/>
				<path style="fill:#C2C4C6;" d="M331.216,128.076c0,0.464-0.381,0.84-0.845,0.84c-0.47,0-0.845-0.376-0.845-0.84
					c0-0.467,0.375-0.842,0.845-0.842C330.835,127.234,331.216,127.609,331.216,128.076z"/>
				<path style="fill:#C2C4C6;" d="M327.706,126.874c0,0.465-0.375,0.839-0.84,0.839c-0.462,0-0.838-0.374-0.838-0.839
					c0-0.466,0.376-0.84,0.838-0.84C327.331,126.034,327.706,126.408,327.706,126.874z"/>
				<path style="fill:#C2C4C6;" d="M324.144,128.208c0,0.461-0.379,0.835-0.841,0.835c-0.468,0-0.845-0.374-0.845-0.835
					c0-0.468,0.377-0.846,0.845-0.846C323.765,127.362,324.144,127.74,324.144,128.208z"/>
				<path style="fill:#C2C4C6;" d="M331.216,135.432c0-0.466-0.381-0.845-0.845-0.845c-0.47,0-0.845,0.379-0.845,0.845
					c0,0.462,0.375,0.839,0.845,0.839C330.835,136.27,331.216,135.894,331.216,135.432z"/>
				<path style="fill:#C2C4C6;" d="M332.864,131.918c0-0.465-0.383-0.842-0.849-0.842c-0.462,0-0.837,0.377-0.837,0.842
					c0,0.463,0.375,0.837,0.837,0.837C332.481,132.755,332.864,132.381,332.864,131.918z"/>
				<path style="fill:#C2C4C6;" d="M322.492,131.918c0-0.465-0.376-0.842-0.837-0.842c-0.467,0-0.844,0.377-0.844,0.842
					c0,0.463,0.377,0.837,0.844,0.837C322.116,132.755,322.492,132.381,322.492,131.918z"/>
				<path style="fill:#C2C4C6;" d="M327.706,136.632c0-0.467-0.375-0.839-0.84-0.839c-0.462,0-0.838,0.372-0.838,0.839
					c0,0.465,0.376,0.84,0.838,0.84C327.331,137.472,327.706,137.097,327.706,136.632z"/>
				<path style="fill:#C2C4C6;" d="M324.144,135.3c0-0.462-0.379-0.84-0.841-0.84c-0.468,0-0.845,0.378-0.845,0.84
					c0,0.467,0.377,0.841,0.845,0.841C323.765,136.141,324.144,135.767,324.144,135.3z"/>
			</g>
		</g>
	</g>
	<g>
		<g>
			<g>
				<path style="fill:#ED2124;" d="M222.983,7.906c0,0-46.126-0.837-62.993,12.257c-16.869,13.095-34.427,29.499-35.03,34.291
					c-0.6,4.793,5.041,66.524,5.041,66.524s0.608,6.245,5.341,5.691h134.574c0,0,6.522-0.251,8.606-4.492
					c3.475-7.066,2.608-6.947,41.958-61.815c0,0,2.295-2.524,3.625-6.828c0.947-3.061,1.228-9.552,1.228-9.552
					s0.392-5.59-3.253-9.105c-3.646-3.516-20.088-17.876-32.205-22.096C275.454,7.759,222.983,7.906,222.983,7.906z"/>
				<path style="fill:#373736;" d="M134.763,127.052c-4.467,0-5.098-5.979-5.105-6.04c-0.231-2.524-5.64-61.826-5.041-66.602
					c0.37-2.947,6.468-9.371,11.519-14.238c6.533-6.299,15.151-13.691,23.642-20.283c15.131-11.745,53.915-12.34,61.536-12.34
					c1.082,0,1.679,0.01,1.679,0.01h0.468c5.371,0,52.872,0.138,66.532,4.895c12.141,4.229,28.59,18.566,32.332,22.174
					c3.719,3.587,3.374,9.146,3.357,9.38c-0.012,0.258-0.294,6.562-1.243,9.631c-1.298,4.2-3.469,6.703-3.685,6.942
					c-36.976,51.557-38.435,54.564-41.333,60.551c-0.186,0.383-0.377,0.779-0.585,1.201c-2.152,4.376-8.631,4.675-8.904,4.685
					H135.364C135.159,127.04,134.958,127.052,134.763,127.052z M221.313,8.244c-7.581,0-46.158,0.587-61.109,12.194
					c-20.955,16.267-34.431,30.345-34.897,34.059c-0.591,4.701,4.988,65.833,5.045,66.449c0.004,0.053,0.576,5.411,4.412,5.411
					c0.174,0,0.358-0.013,0.54-0.033l0.04-0.002h134.574c0.049-0.002,6.326-0.295,8.294-4.298c0.208-0.42,0.397-0.815,0.581-1.198
					c2.92-6.021,4.385-9.044,41.408-60.666l0.023-0.031c0.023-0.025,2.261-2.524,3.551-6.696c0.921-2.983,1.209-9.401,1.213-9.466
					c0.004-0.063,0.333-5.481-3.147-8.84c-3.72-3.585-20.059-17.831-32.078-22.017c-13.553-4.721-60.943-4.858-66.304-4.858
					l-0.474,0.002C222.977,8.255,222.385,8.244,221.313,8.244z"/>
			</g>
			<path style="fill:#3B3C3C;" d="M216.431,8.797c0,0-30.003,1.447-42.628,6.61c-10.545,4.312-13.326,5.94-18.479,9.975
				c0,0-6.121,5.543-10.967,9.886c-4.844,4.343-19.902,18.4-16.428,18.901c3.475,0.502,193.724,0,193.724,0s1.297,0.095,1.53-1.815
				c0.231-1.912,1.703-10.231-0.689-14.278c-2.394-4.045-21.003-17.782-23.667-19.288c-2.664-1.505-9.701-5.704-16.247-6.574
				c-6.546-0.868-39.734-3.012-39.734-3.012L216.431,8.797z"/>
			
				<linearGradient id="SVGID_00000165195241887819788500000000863089265872656019_" gradientUnits="userSpaceOnUse" x1="208.918" y1="-7.9522" x2="224.557" y2="45.568">
				<stop  offset="0" style="stop-color:#FFFFFF"/>
				<stop  offset="1" style="stop-color:#231F20"/>
			</linearGradient>
			<path style="opacity:0.3;fill:url(#SVGID_00000165195241887819788500000000863089265872656019_);" d="M179.289,40.115
				c35.619-5.992,72.09-7.979,108.156-6.348c11.177,0.505,22.363,1.285,33.508,2.435c-5.155-5.341-19.787-16.093-22.127-17.416
				c-2.664-1.505-9.701-5.704-16.247-6.574c-6.546-0.868-39.734-3.012-39.734-3.012l-26.413-0.404c0,0-30.003,1.447-42.628,6.61
				c-10.545,4.312-13.326,5.94-18.479,9.975c0,0-6.121,5.543-10.967,9.886c-4.054,3.637-15.272,14.081-16.774,17.678
				C144.41,47.226,161.76,43.065,179.289,40.115z"/>
			<path style="fill:#3B3C3C;" d="M322.492,38.075c-2.394-4.045-21.003-17.782-23.667-19.288c-2.664-1.505-9.701-5.704-16.247-6.574
				c-6.546-0.868-39.734-3.012-39.734-3.012l-26.413-0.404c0,0-30.003,1.447-42.628,6.61c-10.545,4.312-13.326,5.94-18.479,9.975
				c0,0-6.121,5.543-10.967,9.886c-4.844,4.343-19.902,18.4-16.428,18.901c3.475,0.502,193.724,0,193.724,0s1.297,0.095,1.53-1.815
				C323.413,50.441,324.885,42.122,322.492,38.075z M313.606,50.594c-0.21,1.734-1.387,1.646-1.387,1.646s-172.544,0.456-175.696,0
				c-3.151-0.453,10.507-13.202,14.9-17.141c4.396-3.938,9.946-8.967,9.946-8.967c4.674-3.66,7.197-5.136,16.759-9.046
				c11.451-4.684,38.664-5.996,38.664-5.996l23.954,0.368c0,0,30.1,1.942,36.035,2.731c5.936,0.789,12.318,4.598,14.736,5.963
				c2.415,1.365,19.293,13.825,21.465,17.493C315.152,41.313,313.817,48.86,313.606,50.594z"/>
			<g>
				<path style="fill:#272728;" d="M127.928,54.068c0.476,0.069,4.477,0.12,11.015,0.154l0.659-14.666
					C133.437,45.388,125.271,53.687,127.928,54.068z"/>
			</g>
			<g>
				<path style="fill:#272728;" d="M130.438,48.879c0.595,1.517,1.099,3.067,1.59,4.623c0.068,0.218,0.13,0.44,0.188,0.669
					c1.766,0.021,4.029,0.037,6.728,0.052l0.659-14.666C136.512,42.48,132.918,46.022,130.438,48.879z"/>
			</g>
			<path style="fill:#373736;" d="M139.913,40.423c-2.137,1.88-7.042,6.255-7.584,7.301c-0.693,1.344,0.927,5.826,2.027,7.003
				c0,0,0.579,0.654,1.506,0.887c0.61,0.152,4.221-0.563,6.625-1.071C142.18,49.741,141.339,45.019,139.913,40.423z"/>
			<path style="fill:#373736;" d="M139.913,40.423c-2.137,1.88-7.042,6.255-7.584,7.301c-0.693,1.344,0.927,5.826,2.027,7.003
				c0,0,0.579,0.654,1.506,0.887c0.61,0.152,4.221-0.563,6.625-1.071C142.18,49.741,141.339,45.019,139.913,40.423z"/>
			<path style="fill:#373736;" d="M134.695,46.342c1.817-1.545,3.725-2.993,5.669-4.382c-0.144-0.515-0.292-1.027-0.451-1.537
				c-2.137,1.88-7.042,6.255-7.584,7.301c-0.182,0.354-0.203,0.931-0.115,1.604C132.753,48.173,133.701,47.188,134.695,46.342z"/>
			<path style="opacity:0.5;fill:#373736;" d="M141.955,49.477c0.019,0.725,0.005,1.451-0.064,2.183
				c-0.148,1.518-1.683,1.777-2.942,1.928c-1.553,0.186-3.378,0.321-4.528-0.98c-1.055-1.195-1.787-2.692-2.249-4.226
				c-0.132,1.778,1.226,5.319,2.185,6.347c0,0,0.579,0.654,1.506,0.887c0.61,0.152,4.221-0.563,6.625-1.071
				C142.379,52.843,142.199,51.154,141.955,49.477z"/>
			<path style="fill:#363436;" d="M226.278,13.793l-4.344,40.473l9.991,0.044c0.939-21.655,1.718-40.425,1.718-40.425
				s-0.559-3.069,5.608-4.738l-18.079-0.277C221.173,8.869,226.106,9.217,226.278,13.793z"/>
			<path style="opacity:0.5;fill:#6E6C6D;" d="M322.492,55.286h-96.117c1.712-21.097,3.808-45.944,3.844-46.354l-0.693-0.059
				c-0.034,0.411-2.136,25.299-3.85,46.413H124.931v0.695h100.687c-1.083,13.386-2.002,25.116-2.121,27.906
				c-0.211,4.955-1.377,42.596-1.389,42.976l0.695,0.022c0.01-0.38,1.178-38.017,1.389-42.968
				c0.117-2.788,1.038-14.536,2.123-27.936h96.177V55.286z"/>
		</g>
		
			<linearGradient id="SVGID_00000181053227910219870010000013959371254356403135_" gradientUnits="userSpaceOnUse" x1="222.9675" y1="38.0982" x2="222.9675" y2="144.4362">
			<stop  offset="0" style="stop-color:#FFFFFF"/>
			<stop  offset="0.0795" style="stop-color:#DCDBDC"/>
			<stop  offset="0.2044" style="stop-color:#ABAAAA"/>
			<stop  offset="0.3325" style="stop-color:#827F80"/>
			<stop  offset="0.4614" style="stop-color:#5F5C5D"/>
			<stop  offset="0.5916" style="stop-color:#454142"/>
			<stop  offset="0.7234" style="stop-color:#322E2F"/>
			<stop  offset="0.8579" style="stop-color:#272324"/>
			<stop  offset="0.9993" style="stop-color:#231F20"/>
		</linearGradient>
		<polygon style="opacity:0.4;fill:url(#SVGID_00000181053227910219870010000013959371254356403135_);" points="127.983,62.585 
			129.413,75.938 312.814,65.084 317.952,58.91 		"/>
		<g>
			
				<linearGradient id="SVGID_00000046301210811005087340000017950633032647068826_" gradientUnits="userSpaceOnUse" x1="193.7212" y1="69.8584" x2="213.1553" y2="69.8584">
				<stop  offset="0" style="stop-color:#FFFFFF"/>
				<stop  offset="0.0795" style="stop-color:#DCDBDC"/>
				<stop  offset="0.2044" style="stop-color:#ABAAAA"/>
				<stop  offset="0.3325" style="stop-color:#827F80"/>
				<stop  offset="0.4614" style="stop-color:#5F5C5D"/>
				<stop  offset="0.5916" style="stop-color:#454142"/>
				<stop  offset="0.7234" style="stop-color:#322E2F"/>
				<stop  offset="0.8579" style="stop-color:#272324"/>
				<stop  offset="0.9993" style="stop-color:#231F20"/>
			</linearGradient>
			<path style="opacity:0.4;fill:url(#SVGID_00000046301210811005087340000017950633032647068826_);" d="M213.155,69.858
				c0,2.824-4.35,5.113-9.717,5.113s-9.717-2.289-9.717-5.113c0-2.823,4.35-5.113,9.717-5.113S213.155,67.035,213.155,69.858z"/>
			
				<linearGradient id="SVGID_00000062190972135222026050000011759638219159374728_" gradientUnits="userSpaceOnUse" x1="194.0415" y1="70.0278" x2="212.835" y2="70.0278">
				<stop  offset="0" style="stop-color:#FFFFFF"/>
				<stop  offset="0.0795" style="stop-color:#DCDBDC"/>
				<stop  offset="0.2044" style="stop-color:#ABAAAA"/>
				<stop  offset="0.3325" style="stop-color:#827F80"/>
				<stop  offset="0.4614" style="stop-color:#5F5C5D"/>
				<stop  offset="0.5916" style="stop-color:#454142"/>
				<stop  offset="0.7234" style="stop-color:#322E2F"/>
				<stop  offset="0.8579" style="stop-color:#272324"/>
				<stop  offset="0.9993" style="stop-color:#231F20"/>
			</linearGradient>
			<path style="opacity:0.4;fill:url(#SVGID_00000062190972135222026050000011759638219159374728_);" d="M212.835,70.028
				c0,2.73-4.208,4.943-9.397,4.943c-5.189,0-9.396-2.213-9.396-4.943c0-2.73,4.207-4.944,9.396-4.944
				C208.627,65.084,212.835,67.298,212.835,70.028z"/>
			<g>
				<path style="fill:#ED2124;" d="M215.506,69.74c0-1.454-5.32-2.078-11.882-2.078c-6.561,0-11.881,0.624-11.881,2.078
					c0,1.454,5.32,2.634,11.881,2.634C210.186,72.374,215.506,71.194,215.506,69.74z"/>
				<path style="fill:#ED2124;" d="M197.175,68.674c2.772-0.247,5.547-0.342,8.332-0.357c2.887-0.016,5.788,0.052,8.664,0.331
					c-1.98-0.68-5.956-0.985-10.547-0.985c-6.233,0-11.343,0.563-11.837,1.866C193.503,68.947,195.377,68.833,197.175,68.674z"/>
				<path style="fill:#ED2124;" d="M203.624,67.662c-6.561,0-11.881,0.624-11.881,2.078c0,1.454,5.32,2.634,11.881,2.634
					c6.563,0,11.882-1.18,11.882-2.634C215.506,68.286,210.186,67.662,203.624,67.662z M201.451,71.347
					c-4.869,0-8.815-0.874-8.815-1.953c0-1.08,3.946-1.542,8.815-1.542c4.869,0,8.815,0.462,8.815,1.542
					C210.266,70.473,206.32,71.347,201.451,71.347z"/>
				<path style="fill:#87898C;" d="M213.614,69.711c0,0.446-0.362,0.807-0.807,0.807c-0.445,0-0.807-0.36-0.807-0.807
					c0-0.446,0.362-0.807,0.807-0.807C213.252,68.904,213.614,69.265,213.614,69.711z"/>
			</g>
		</g>
		<g>
			
				<linearGradient id="SVGID_00000057140602492348956510000006231795067867519105_" gradientUnits="userSpaceOnUse" x1="288.2471" y1="69.8584" x2="307.6826" y2="69.8584">
				<stop  offset="0" style="stop-color:#FFFFFF"/>
				<stop  offset="0.0795" style="stop-color:#DCDBDC"/>
				<stop  offset="0.2044" style="stop-color:#ABAAAA"/>
				<stop  offset="0.3325" style="stop-color:#827F80"/>
				<stop  offset="0.4614" style="stop-color:#5F5C5D"/>
				<stop  offset="0.5916" style="stop-color:#454142"/>
				<stop  offset="0.7234" style="stop-color:#322E2F"/>
				<stop  offset="0.8579" style="stop-color:#272324"/>
				<stop  offset="0.9993" style="stop-color:#231F20"/>
			</linearGradient>
			<path style="opacity:0.4;fill:url(#SVGID_00000057140602492348956510000006231795067867519105_);" d="M307.683,69.858
				c0,2.824-4.352,5.113-9.719,5.113s-9.717-2.289-9.717-5.113c0-2.823,4.35-5.113,9.717-5.113S307.683,67.035,307.683,69.858z"/>
			
				<linearGradient id="SVGID_00000106119178662288783520000017811758800268424838_" gradientUnits="userSpaceOnUse" x1="288.5684" y1="70.0278" x2="307.3604" y2="70.0278">
				<stop  offset="0" style="stop-color:#FFFFFF"/>
				<stop  offset="0.0795" style="stop-color:#DCDBDC"/>
				<stop  offset="0.2044" style="stop-color:#ABAAAA"/>
				<stop  offset="0.3325" style="stop-color:#827F80"/>
				<stop  offset="0.4614" style="stop-color:#5F5C5D"/>
				<stop  offset="0.5916" style="stop-color:#454142"/>
				<stop  offset="0.7234" style="stop-color:#322E2F"/>
				<stop  offset="0.8579" style="stop-color:#272324"/>
				<stop  offset="0.9993" style="stop-color:#231F20"/>
			</linearGradient>
			<path style="opacity:0.4;fill:url(#SVGID_00000106119178662288783520000017811758800268424838_);" d="M307.36,70.028
				c0,2.73-4.206,4.943-9.397,4.943c-5.19,0-9.396-2.213-9.396-4.943c0-2.73,4.206-4.944,9.396-4.944
				C303.154,65.084,307.36,67.298,307.36,70.028z"/>
			<g>
				<path style="fill:#ED2124;" d="M310.034,69.74c0-1.454-5.32-2.078-11.883-2.078s-11.883,0.624-11.883,2.078
					c0,1.454,5.32,2.634,11.883,2.634S310.034,71.194,310.034,69.74z"/>
				<path style="fill:#ED2124;" d="M291.7,68.674c2.772-0.247,5.547-0.342,8.332-0.357c2.887-0.016,5.788,0.052,8.664,0.331
					c-1.978-0.68-5.957-0.985-10.545-0.985c-6.233,0-11.343,0.563-11.838,1.866C288.03,68.947,289.904,68.833,291.7,68.674z"/>
				<path style="fill:#ED2124;" d="M298.151,67.662c-6.563,0-11.883,0.624-11.883,2.078c0,1.454,5.32,2.634,11.883,2.634
					s11.883-1.18,11.883-2.634C310.034,68.286,304.714,67.662,298.151,67.662z M295.976,71.347c-4.869,0-8.815-0.874-8.815-1.953
					c0-1.08,3.945-1.542,8.815-1.542c4.869,0,8.816,0.462,8.816,1.542C304.792,70.473,300.845,71.347,295.976,71.347z"/>
				<path style="fill:#87898C;" d="M308.14,69.711c0,0.446-0.361,0.807-0.808,0.807c-0.445,0-0.808-0.36-0.808-0.807
					c0-0.446,0.362-0.807,0.808-0.807C307.778,68.904,308.14,69.265,308.14,69.711z"/>
			</g>
		</g>
	</g>
</g>
</svg>
